<svg xmlns="http://www.w3.org/2000/svg" width="13.96" height="36.57" viewBox="0 0 13.96 36.57">
  <defs>
    <style>
      .cls-1 {
        fill: #192535;
        fill-rule: evenodd;
      }
    </style>
  </defs>
  <path id="Shape_1_copy_2" data-name="Shape 1 copy 2" class="cls-1" d="M1491.88,4222.13V4189.9l-4.35,4.36a0.978,0.978,0,0,1-1.38,0,0.99,0.99,0,0,1,0-1.39l6.02-6.01a0.978,0.978,0,0,1,1.38,0l6.01,6.01a1,1,0,0,1,.29.69,1.019,1.019,0,0,1-.29.7,0.978,0.978,0,0,1-1.38,0l-4.35-4.36v32.23A0.975,0.975,0,1,1,1491.88,4222.13Z" transform="translate(-1485.88 -4186.56)"/>
</svg>
